/*
#include "../../libs/buzzer.h"
#include "pitches.h"
// change this to make the song slower or faster
int tempo = 144;

// change this to whichever pin you want to use
 int buzzer = P1_30;

// notes of the moledy followed by the duration.
// a 4 means a quarter note, 8 an eighteenth , 16 sixteenth, so on
// !!negative numbers are used to represent dotted notes,
// so -4 means a dotted quarter note, that is, a quarter plus an eighteenth!!
const PROGMEM int melody[] = {


  // Bloody Tears, from Castlevania II
  // Arranged by Bobby Lee. THe flute part was used 
  // https://musescore.com/user/263171/scores/883296
  
  //B-flat major Bb Eb
  REST, 4, NOTE_G5, 4,
  NOTE_A5, 4, NOTE_AS5, 4,
  NOTE_A5, 4, NOTE_F5, 4,
  NOTE_A5, 4, NOTE_G5, 4,
  REST, 4, NOTE_G5, 4,
  NOTE_A5, 4, NOTE_AS5, 4,
  NOTE_C6, 4, NOTE_AS5, 4,

  NOTE_A5, 4, NOTE_G5, 4, //8
  REST, 4, NOTE_G5, 4,
  NOTE_A5, 4, NOTE_AS5, 4,
  NOTE_A5, 4, NOTE_F5, 4,
  NOTE_A5, 4, NOTE_G5, 4,
  NOTE_D6, 4, REST, 8, NOTE_C6, 8,
  REST, 4, NOTE_AS5, 4,

  NOTE_A5, 4, NOTE_AS5, 8, NOTE_C6, 8, //15
  NOTE_F6, 8, REST, 8, REST, 4,
  NOTE_G5, 16, NOTE_D5, 16, NOTE_D6, 16, NOTE_D5, 16, NOTE_C6, 16, NOTE_D5, 16, NOTE_AS5, 16, NOTE_D5, 16,
  NOTE_A5, 16, NOTE_D5, 16, NOTE_AS5, 16, NOTE_D5, 16, NOTE_A5, 16, NOTE_D5, 16, NOTE_G5, 16, NOTE_D5, 16,
  NOTE_A5, 16, NOTE_D5, 16, NOTE_AS5, 16, NOTE_D5, 16, NOTE_C6, 16, NOTE_D5, 16, NOTE_AS5, 16, NOTE_D5, 16,

  NOTE_A5, 16, NOTE_D5, 16, NOTE_F5, 16, NOTE_D5, 16, NOTE_A5, 16, NOTE_D5, 16, NOTE_G5, 16, NOTE_D5, 16, //20
  NOTE_G5, 16, NOTE_D5, 16, NOTE_D6, 16, NOTE_D5, 16, NOTE_C6, 16, NOTE_D5, 16, NOTE_AS5, 16, NOTE_D5, 16,
  NOTE_A5, 16, NOTE_D5, 16, NOTE_AS5, 16, NOTE_D5, 16, NOTE_A5, 16, NOTE_D5, 16, NOTE_AS5, 16, NOTE_D5, 16,
  NOTE_A5, 16, NOTE_D5, 16, NOTE_AS5, 16, NOTE_D5, 16, NOTE_C6, 16, NOTE_D5, 16, NOTE_AS5, 16, NOTE_D5, 16,
  NOTE_A5, 16, NOTE_D5, 16, NOTE_F5, 16, NOTE_D5, 16, NOTE_A5, 16, NOTE_D5, 16, NOTE_G5, 16, NOTE_D5, 16,

  NOTE_G5, 16, NOTE_D5, 16, NOTE_D6, 16, NOTE_D5, 16, NOTE_C6, 16, NOTE_D5, 16, NOTE_AS5, 16, NOTE_D5, 16, //25
  NOTE_A5, 16, NOTE_D5, 16, NOTE_AS5, 16, NOTE_D5, 16, NOTE_A5, 16, NOTE_D5, 16, NOTE_G5, 16, NOTE_D5, 16,
  NOTE_A5, 16, NOTE_D5, 16, NOTE_AS5, 16, NOTE_D5, 16, NOTE_C6, 16, NOTE_D5, 16, NOTE_AS5, 16, NOTE_D5, 16,
  NOTE_A5, 16, NOTE_D5, 16, NOTE_F5, 16, NOTE_D5, 16, NOTE_A5, 16, NOTE_D5, 16, NOTE_G5, 16, NOTE_D5, 16,
  NOTE_AS5, 16, NOTE_D5, 16, NOTE_D6, 16, NOTE_D5, 16, NOTE_C6, 16, NOTE_D5, 16, NOTE_AS5, 16, NOTE_D5, 16,

  NOTE_A5, 16, NOTE_D5, 16, NOTE_AS5, 16, NOTE_D5, 16, NOTE_A5, 16, NOTE_D5, 16, NOTE_G5, 16, NOTE_D5, 16,
  NOTE_A5, 16, NOTE_D5, 16, NOTE_AS5, 16, NOTE_D5, 16, NOTE_C6, 16, NOTE_D5, 16, NOTE_AS5, 16, NOTE_D5, 16,
  NOTE_A5, 16, NOTE_D5, 16, NOTE_F5, 16, NOTE_D5, 16, NOTE_A5, 16, NOTE_D5, 16, NOTE_G5, 16, NOTE_D5, 16,
  NOTE_C6, 16, NOTE_C6, 16, NOTE_F6, 16, NOTE_D6, 8, REST, 16, REST, 8,
  REST, 4, NOTE_C6, 16, NOTE_AS5, 16,

  NOTE_C6, -8,  NOTE_F6, -8, NOTE_D6, -4, //35
  NOTE_C6, 8, NOTE_AS5, 8,
  NOTE_C6, 8, NOTE_F6, 16, NOTE_D6, 8, REST, 16, REST, 8,
  REST, 4, NOTE_C6, 8, NOTE_D6, 8,
  NOTE_DS6, -8, NOTE_F6, -8,

  NOTE_D6, -8, REST, 16, NOTE_DS6, 8, REST, 8, //40
  NOTE_C6, 8, NOTE_F6, 16, NOTE_D6, 8, REST, 16, REST, 8,
  REST, 4, NOTE_C6, 8, NOTE_AS5, 8,
  NOTE_C6, -8,  NOTE_F6, -8, NOTE_D6, -4,
  NOTE_C6, 8, NOTE_AS5, 8,

  NOTE_C6, 8, NOTE_F6, 16, NOTE_D6, 8, REST, 16, REST, 8, //45
  REST, 4, NOTE_C6, 8, NOTE_D6, 8,
  NOTE_DS6, -8, NOTE_F6, -8,
  NOTE_D5, 8, NOTE_FS5, 8, NOTE_F5, 8, NOTE_A5, 8,
  NOTE_A5, -8, NOTE_G5, -4,

  NOTE_A5, -8, NOTE_G5, -4, //50
  NOTE_A5, -8, NOTE_G5, -4,
  NOTE_AS5, 8, NOTE_A5, 8, NOTE_G5, 8, NOTE_F5, 8,
  NOTE_A5, -8, NOTE_G5, -8, NOTE_D5, 8,
  NOTE_A5, -8, NOTE_G5, -8, NOTE_D5, 8,
  NOTE_A5, -8, NOTE_G5, -8, NOTE_D5, 8,

  NOTE_AS5, 4, NOTE_C6, 4, NOTE_A5, 4, NOTE_AS5, 4,
  NOTE_G5,16, NOTE_D5,16, NOTE_D6,16, NOTE_D5,16, NOTE_C6,16, NOTE_D5,16, NOTE_AS5,16, NOTE_D5,16,//56 //r
  NOTE_A5,16, NOTE_D5,16, NOTE_AS5,16, NOTE_D5,16, NOTE_A5,16, NOTE_D5,16, NOTE_G5,16, NOTE_D5,16,
  NOTE_A5,16, NOTE_D5,16, NOTE_AS5,16, NOTE_D5,16, NOTE_C6,16, NOTE_D5,16, NOTE_AS5,16, NOTE_D5,16,
  NOTE_A5,16, NOTE_D5,16, NOTE_F5,16, NOTE_D5,16, NOTE_A5,16, NOTE_D5,16, NOTE_G5,16, NOTE_D5,16,

  NOTE_G5,16, NOTE_D5,16, NOTE_D6,16, NOTE_D5,16, NOTE_C6,16, NOTE_D5,16, NOTE_AS5,16, NOTE_D5,16,//61
  NOTE_A5,16, NOTE_D5,16, NOTE_AS5,16, NOTE_D5,16, NOTE_A5,16, NOTE_D5,16, NOTE_AS5,16, NOTE_D5,16,
  NOTE_A5,16, NOTE_D5,16, NOTE_AS5,16, NOTE_D5,16, NOTE_C6,16, NOTE_D5,16, NOTE_AS5,16, NOTE_D5,16,
  NOTE_A5,16, NOTE_D5,16, NOTE_F5,16, NOTE_D5,16, NOTE_A5,16, NOTE_D5,16, NOTE_G5,16, NOTE_D5,16,
  NOTE_G5,16, NOTE_D5,16, NOTE_D6,16, NOTE_D5,16, NOTE_C6,16, NOTE_D5,16, NOTE_AS5,16, NOTE_D5,16,

  NOTE_A5,16, NOTE_D5,16, NOTE_AS5,16, NOTE_D5,16, NOTE_A5,16, NOTE_D5,16, NOTE_G5,16, NOTE_D5,16,//66
  NOTE_A5,16, NOTE_D5,16, NOTE_AS5,16, NOTE_D5,16, NOTE_C6,16, NOTE_D5,16, NOTE_AS5,16, NOTE_D5,16,
  NOTE_A5,16, NOTE_D5,16, NOTE_F5,16, NOTE_D5,16, NOTE_A5,16, NOTE_D5,16, NOTE_G5,16, NOTE_D5,16,
  NOTE_AS5,16, NOTE_D5,16, NOTE_D6,16, NOTE_D5,16, NOTE_C6,16, NOTE_D5,16, NOTE_AS5,16, NOTE_D5,16,
  NOTE_A5,16, NOTE_D5,16, NOTE_AS5,16, NOTE_D5,16, NOTE_A5,16, NOTE_D5,16, NOTE_G5,16, NOTE_D5,16,

  NOTE_A5,16, NOTE_D5,16, NOTE_AS5,16, NOTE_D5,16, NOTE_C6,16, NOTE_D5,16, NOTE_AS5,16, NOTE_D5,16,//71 //
  NOTE_A5, 16, NOTE_D5, 16, NOTE_F5, 16, NOTE_D5, 16, NOTE_A5, 8, NOTE_G5, 32, NOTE_A5, 32, NOTE_AS5, 32, NOTE_C6, 32,
  NOTE_D6, 16, NOTE_G5, 16, NOTE_AS5, 16, NOTE_G5, 16, NOTE_C6, 16, NOTE_G5, 16, NOTE_D6, 16, NOTE_G5, 16,
  NOTE_C6, 16, NOTE_G5, 16, NOTE_A5, 16, NOTE_G5, 16, NOTE_F6, 16, NOTE_G5, 16, NOTE_D6, 16, NOTE_DS5, 16,
  NOTE_D6, 4, REST, 4,

  NOTE_C5, 8, REST, 8, NOTE_A4, -16, NOTE_AS4, -16, NOTE_C5, 16, //76
  NOTE_D6, 16, NOTE_G4, 16, NOTE_AS4, 16, NOTE_G4, 16, NOTE_C5, 16, NOTE_G4, 16, NOTE_D6, 16, NOTE_G4, 16,
  NOTE_C6, 16, NOTE_F4, 16, NOTE_A4, 16, NOTE_F4, 16, NOTE_F5, 16, NOTE_F4, 16, NOTE_D6, 16, NOTE_DS4, 16,
  NOTE_D6, 16, REST, 8, NOTE_E4, 16, NOTE_F4, 16,
  
  //change of key B Major A# C# D# F# G#
  NOTE_GS4, 8, REST, 8, NOTE_AS4, 8, REST, 8,

  NOTE_DS5, 16, NOTE_GS4, 16, NOTE_B4, 16, NOTE_GS4, 16, NOTE_CS5, 16, NOTE_GS4, 16, NOTE_DS5, 16, NOTE_GS4, 16, //81
  NOTE_CS5, 16, NOTE_FS4, 16, NOTE_AS4, 16, NOTE_FS4, 16, NOTE_FS5, 16, NOTE_FS4, 16, NOTE_DS5, 16, NOTE_E5, 16,
  NOTE_D5, 4, REST, 4,
  NOTE_CS5, 8, REST, 8, NOTE_AS4, -16,  NOTE_B4, -16, NOTE_CS5, 16,
  NOTE_DS5, 16, NOTE_GS4, 16, NOTE_B4, 16, NOTE_GS4, 16, NOTE_CS5, 16, NOTE_GS4, 16, NOTE_DS5, 16, NOTE_GS4, 16,
  
  NOTE_CS5, 16, NOTE_FS4, 16, NOTE_AS4, 16, NOTE_FS4, 16, NOTE_FS5, 16, NOTE_FS4, 16, NOTE_DS5, 16, NOTE_E5, 16,
  NOTE_DS5, 4, REST, 8, NOTE_DS5, 16,  NOTE_E5, 16,
  NOTE_FS5, 16, NOTE_CS5, 16, NOTE_E5, 16, NOTE_CS4, 16, NOTE_DS5, 16, NOTE_E5, 16, NOTE_G5, 16, NOTE_AS5, 16,
  NOTE_GS5, 16, NOTE_DS5, 16, NOTE_DS6, 16, NOTE_DS5, 16, NOTE_CS6, 16, NOTE_DS5, 16, NOTE_B5, 16, NOTE_DS5, 16,

  NOTE_AS5, 16, NOTE_DS5, 16, NOTE_B5, 16, NOTE_DS5, 16, NOTE_AS5, 16, NOTE_DS5, 16, NOTE_GS5, 16, NOTE_DS5, 16, //90
  NOTE_AS5, 16, NOTE_DS5, 16, NOTE_B5, 16, NOTE_DS5, 16, NOTE_CS6, 16, NOTE_DS5, 16, NOTE_B5, 16, NOTE_DS5, 16,
  NOTE_AS5, 16, NOTE_DS5, 16, NOTE_FS5, 16, NOTE_DS5, 16, NOTE_AS5, 16, NOTE_DS5, 16, NOTE_GS5, 16, NOTE_DS5, 16,
  NOTE_GS5, 16, NOTE_DS5, 16, NOTE_DS6, 16, NOTE_DS5, 16, NOTE_CS6, 16, NOTE_DS5, 16, NOTE_B5, 16, NOTE_DS5, 16,

  NOTE_AS5, 16, NOTE_DS5, 16, NOTE_B5, 16, NOTE_DS5, 16, NOTE_AS5, 16, NOTE_DS5, 16, NOTE_GS5, 16, NOTE_DS5, 16,//94
  NOTE_AS5, 16, NOTE_DS5, 16, NOTE_B5, 16, NOTE_DS5, 16, NOTE_CS6, 16, NOTE_DS5, 16, NOTE_B5, 16, NOTE_DS5, 16,
  NOTE_AS5, 16, NOTE_DS5, 16, NOTE_FS5, 16, NOTE_DS5, 16, NOTE_AS5, 16, NOTE_DS5, 16, NOTE_GS5, 16, NOTE_DS5, 16,
  NOTE_GS5, 16, NOTE_DS5, 16, NOTE_DS6, 16, NOTE_DS5, 16, NOTE_CS6, 16, NOTE_DS5, 16, NOTE_B5, 16, NOTE_DS5, 16,

  NOTE_AS5, 16, NOTE_DS5, 16, NOTE_B5, 16, NOTE_DS5, 16, NOTE_AS5, 16, NOTE_DS5, 16, NOTE_GS5, 16, NOTE_DS5, 16,//98
  NOTE_AS5, 16, NOTE_DS5, 16, NOTE_B5, 16, NOTE_DS5, 16, NOTE_CS6, 16, NOTE_DS5, 16, NOTE_B5, 16, NOTE_DS5, 16,
  NOTE_AS5, 16, NOTE_DS5, 16, NOTE_FS5, 16, NOTE_DS5, 16, NOTE_AS5, 16, NOTE_DS5, 16, NOTE_GS5, 16, NOTE_DS5, 16,
  NOTE_GS5, 16, NOTE_DS5, 16, NOTE_DS6, 16, NOTE_DS5, 16, NOTE_CS6, 16, NOTE_DS5, 16, NOTE_B5, 16, NOTE_DS5, 16,

  NOTE_AS5, 16, NOTE_DS5, 16, NOTE_B5, 16, NOTE_DS5, 16, NOTE_AS5, 16, NOTE_DS5, 16, NOTE_GS5, 16, NOTE_DS5, 16,//102
  NOTE_AS5, 16, NOTE_DS5, 16, NOTE_B5, 16, NOTE_DS5, 16, NOTE_CS6, 16, NOTE_DS5, 16, NOTE_B5, 16, NOTE_DS5, 16,
  NOTE_AS5, 16, NOTE_DS5, 16, NOTE_FS5, 16, NOTE_DS5, 16, NOTE_AS5, 16, NOTE_DS5, 16, NOTE_GS5, 16, NOTE_DS5, 16,
  
  NOTE_CS6, 8, NOTE_FS6, 16, NOTE_DS6, 8, REST,16, REST,8, //107
  REST,4, NOTE_CS6, 8, NOTE_B5, 8,
  NOTE_CS6,-8, NOTE_FS6, -8, NOTE_DS6, -4,
  NOTE_CS6, 8, NOTE_B5, 8,
  NOTE_CS6, 8, NOTE_FS6, 16, NOTE_DS6, 8, REST,16, REST,8,
  REST,4, NOTE_CS6, 8, NOTE_B5, 8,
  NOTE_E6, -8, NOTE_F6, -8,
  
  NOTE_DS6,-8, REST,16, NOTE_E6,8, REST,16, REST,16, //112
  NOTE_CS6, 8, NOTE_FS6, 16, NOTE_DS6, 8, REST,16, REST,8,
  REST,4, NOTE_CS6, 8, NOTE_B5, 8,
  NOTE_CS6,-8, NOTE_FS6, -8, NOTE_DS6, -4,
  NOTE_CS6, 8, NOTE_B5, 8,
  
  NOTE_CS6, 8, NOTE_FS6, 16, NOTE_DS6, 8, REST,16, REST,8, //117
  REST,4, NOTE_CS5, 8, NOTE_DS5, 8,
  NOTE_E5, -8, NOTE_F5, -8,
  NOTE_DS5, 8, NOTE_G5, 8, NOTE_GS5, 8, NOTE_AS5, 8,
  NOTE_AS5, -8, NOTE_GS5, -8,

  NOTE_AS5, -8, NOTE_GS5, -8,//122
  NOTE_AS5, -8, NOTE_GS5, -8,
  NOTE_B6, 8, NOTE_AS5, 8, NOTE_GS5, 8, NOTE_FS5, 8,
  NOTE_AS5,-8, NOTE_GS6, -8, NOTE_DS5, 8,
  NOTE_AS5,-8, NOTE_GS6, -8, NOTE_DS5, 8,
  NOTE_AS5,-8, NOTE_GS6, -8, NOTE_DS5, 8,

  NOTE_B5,8, NOTE_CS6, 8, NOTE_AS5, 8, NOTE_B5, 8,//128
  NOTE_GS5,8, REST,8, REST, 16
  
};

// sizeof gives the number of bytes, each int value is composed of two bytes (16 bits)
// there are two values per note (pitch and duration), so for each note there are four bytes
int notes = sizeof(melody) / sizeof(melody[0]) / 2;

// this calculates the duration of a whole note in ms (60s/tempo)*4 beats
int wholenote = (60000 * 4) / tempo;

int divider = 0, duration = 0;

void setup() {
  // iterate over the notes of the melody.
  // Remember, the array is twice the number of notes (notes + durations)
  for (int thisNote = 0; thisNote < notes * 2; thisNote = thisNote + 2) {

    // calculates the duration of each note
    divider = pgm_read_word_near(melody+thisNote + 1);
    if (divider > 0) {
      // regular note, just proceed
      duration = (wholenote) / divider;
    } else if (divider < 0) {
      // dotted notes are represented with negative durations!!
      duration = (wholenote) / abs(divider);
      duration *= 1.5; // increases the duration in half for dotted notes
    }

    // we only play the note for 90% of the duration, leaving 10% as a pause
    tone(buzzer, pgm_read_word_near(melody+thisNote ), duration * 0.9);

    // Wait for the specief duration before playing the next note.
    delay(duration);

    // stop the waveform generation before the next note.
    noTone(buzzer);
  }
}

void loop() {
  // no need to repeat the melody.
}*/